<svg xmlns="http://www.w3.org/2000/svg" viewBox="0 0 64 64" fill="none">
  <!-- Compact icon version for favicon/small displays -->
  <defs>
    <linearGradient id="iconGradient" x1="0%" y1="0%" x2="100%" y2="100%">
      <stop offset="0%" style="stop-color:#1565c0"/>
      <stop offset="100%" style="stop-color:#0d47a1"/>
    </linearGradient>
  </defs>

  <!-- Shield shape background -->
  <path d="M32 4 L56 14 L56 36 C56 48 44 58 32 62 C20 58 8 48 8 36 L8 14 Z"
        fill="url(#iconGradient)"/>

  <!-- Football pattern in center -->
  <circle cx="32" cy="32" r="14" fill="#ffffff" stroke="#0d47a1" stroke-width="1"/>

  <!-- Pentagon pattern on ball -->
  <path d="M32 22 L36 27 L34 33 L30 33 L28 27 Z" fill="#1565c0"/>
  <path d="M25 28 L28 27 L30 33 L27 36 L23 33 Z" fill="#1565c0" opacity="0.7"/>
  <path d="M39 28 L36 27 L34 33 L37 36 L41 33 Z" fill="#1565c0" opacity="0.7"/>
  <path d="M30 33 L34 33 L36 39 L32 42 L28 39 Z" fill="#1565c0" opacity="0.7"/>

  <!-- Green accent at bottom -->
  <path d="M14 50 Q32 46 50 50" stroke="#00c853" stroke-width="2.5" fill="none" stroke-linecap="round"/>
</svg>
